# xmcd
#
# Track frame offsets: 
#        150
#        17231
#        29548
#        47467
#        63905
#        80863
#
# Disc length: 1295 seconds
#
# Revision: 0
# Processed by: cddbd v1.5.2PL0 Copyright (c) Steve Scherf et al.
# Submitted via: ExactAudioCopy v1.3
#
DISCID=48050d06
DTITLE=Jeannine Barry - Off The Hook
DYEAR=2015
DGENRE=Country
TTITLE0=Off The Hook
TTITLE1=Lonely Road
TTITLE2=Us Or Drinking
TTITLE3=Undeniable
TTITLE4=Carousel
TTITLE5=Long Hot Summer
EXTD=
EXTT0=
EXTT1=
EXTT2=
EXTT3=
EXTT4=
EXTT5=
PLAYORDER=
